<svg xmlns="http://www.w3.org/2000/svg" width="362.9308" height="400.0609" viewBox="0 0 362.9308 400.0609"><title>Perch3</title><g id="Layer_2" data-name="Layer 2"><g id="Layer_1-2" data-name="Layer 1"><path d="M351.2632,56.1028c-15.0192,2.4667-29.29,6.81-41.1778,16.8679-12.9455,10.9527-12.986,26.0141-13.1709,41.1555-.3474,28.4421-3.5437,56.2312-19.6383,80.9123-14.993,22.9916-35.7858,39.4393-59.8,51.7336-39.9294,20.4422-82.2574,35.3914-123.6125,52.5614-15.1238,6.2791-30.4526,12.08-45.8036,17.7879-5.09,1.8927-10.0892.8374-12.2281-4.7945-2.0038-5.276.431-9.12,5.5654-11.2705,1.297-.5432,2.569-1.1459,3.8528-1.7215a15.688,15.688,0,0,0,1.8918-.4911c24.0862-9.4744,48.35-18.5257,72.2051-28.5515,33.9877-14.2847,69.3295-25.6654,100.9541-45.152,23.7947-14.6619,41.5564-34.2633,52.6474-60.67l7.0125-58.6178.0275-3.2165q.3543-3.8483.7087-7.7.11-1.3583.219-2.7148.8115-3.443,1.6233-6.8895C288.0423,66.0659,302.234,55.24,319.4357,47.33c1.67-.768,3.3039-1.6158,4.9545-2.4265a40.7,40.7,0,0,0-4.1458-3.3048c-7.8886-4.81-15.8338-9.5265-23.76-14.2756-15.4375-8.6224-30.9776-14.6781-48.8036-6.0993-19.317,9.2964-32.5074,25.0065-44.84,41.5564-6.2519,8.39-20.3023,15.1085-8.5934,29.0442,7.8165,18.473,12.4768,37.5928,10.39,57.7635a89.4132,89.4132,0,0,1-23.4767,52.5359c-34.2858,37.3848-78.4486,58.3706-124.8623,75.7586-14.2817,5.35-28.3337,11.3116-42.5275,16.9-4.59,1.8071-9.1359,1.9138-12.285-2.6431-3.0791-4.4556-.88-8.1463,2.1089-11.8081q39.0832-47.8831,78.0364-95.8724c29.9665-36.8675,59.731-73.9013,89.9461-110.5638,14.6891-17.8235,27.5328-37.2618,45.194-52.55,29.7278-25.7333,57.3323-28.0108,91.2-7.8546,14.6227,8.7026,28.8951,17.8338,41.8682,28.887l12.8938,11.0355a.5609.5609,0,0,1-.3026.9839c-2.2535.2462-5.8533.7149-7.2975.8281M89.4411,201.7479l-.64.8852-.6712.7578L87.208,204.54l-.6274.7934-3.4545,3.7992.7056.6978,3.3943-2.5281,2.0662-1.2035.9215-.6079,1.5938-.8671,1.418-1.0931c35.7-17.8923,67.2906-59.6608,62.7437-83.4318Zm98.3118-61.774c.0437-13.9493-3.4674-27.12-8.82-39.8647a33.6208,33.6208,0,0,0-2.87-4.6284c-1.6253,2.3164-4.16,3.8219-3.5314,7.6225a88.2994,88.2994,0,0,1-6.573,51.46c-13.5164,30.1608-39.5944,47.6523-65.7472,65.187C79.29,233.7777,52.4381,239.62,38.86,263.8732a40.8562,40.8562,0,0,1-2.3939,3.4319,26.3873,26.3873,0,0,0,4.3237-.8233c38.8737-14.2343,75.9349-31.8616,108.616-57.7717C171.6839,191.0478,187.85,170.0652,187.7529,139.974Z" fill="#12141f"/><path d="M272.9484,164.47c-11.091,26.4068-28.8527,46.0082-52.6474,60.67-31.6246,19.4866-66.9664,30.8673-100.9541,45.152-23.8547,10.0258-48.119,19.0772-72.2051,28.5515a15.688,15.688,0,0,1-1.8918.4911c9.3563-7.6908,20.3861-12.5353,31.0509-17.9207,41.4321-20.9219,82.8789-41.7148,120.0574-70.0066,28.4178-21.6251,53.42-46.2235,70.7552-77.7455,4.991-9.0757,8.5367-18.9463,12.7451-28.4525" fill="#31dd7f"/><path d="M274.5654,35.547q.5378.1238,1.0744.2471l1.3479.4787c6.0729,3.2374,8.3453,8.3477,5.341,14.4511-2.9447,5.9824-8.6373,7.7238-14.5814,4.8047-6.6415-3.2616-7.8934-8.8417-4.4021-15.395q.6583-.8375,1.3193-1.6773a1.5336,1.5336,0,0,1,.2869-.2112q.68-.5106,1.3625-1.0231.5-.3341.998-.6675A12.7388,12.7388,0,0,1,274.5654,35.547Z" fill="#12141f"/><path d="M280.6971,94.9359q-.3544,3.85-.7087,7.6988Q280.3428,98.7836,280.6971,94.9359Z" fill="#55a1b3"/><path d="M282.5394,85.3316q-.8118,3.4456-1.6233,6.8895Q281.7279,88.7746,282.5394,85.3316Z" fill="#55a1b3"/><path d="M264.6645,38.4563q-.66.8392-1.3193,1.6773Q264.0062,39.2938,264.6645,38.4563Z" fill="#55a1b3"/><path d="M351.0642,43.7121q-.6125-.6676-1.2241-1.3339Q350.453,43.0465,351.0642,43.7121Z" fill="#55a1b3"/><path d="M266.314,37.222q-.6822.512-1.3625,1.0231Q265.6345,37.7326,266.314,37.222Z" fill="#55a1b3"/><path d="M276.9877,36.2728l-1.3479-.4786Z" fill="#55a1b3"/><path d="M187.7615,139.9711c.0881,30.0941-16.0776,51.0767-38.3554,68.7389-32.681,25.91-69.7422,43.5374-108.616,57.7717a26.3905,26.3905,0,0,1-4.3238.8233,40.8608,40.8608,0,0,0,2.3939-3.4319C52.4381,239.62,79.29,233.7777,100.2122,219.75c26.1528-17.5347,52.2308-35.0263,65.7472-65.187a88.2994,88.2994,0,0,0,6.573-51.46c-.6285-3.8006,1.9061-5.3061,3.5314-7.6225a33.6208,33.6208,0,0,1,2.87,4.6284C184.2855,112.8539,187.7966,126.0247,187.7615,139.9711Z" fill="#fdfdfd"/><path d="M88.1294,203.3909q.3356-.3789.6706-.7563.32-.4419.641-.8867l66.5281-81.6489c4.5469,23.771-27.0439,65.54-62.7424,83.4309q-.7083.5461-1.4193,1.0939-.7969.4336-1.5925.8663l-.9227.6087q-1.0331.6018-2.0652,1.2027-.3222-.9848-.6464-1.9681.3137-.3967.6267-.7921Q87.6677,203.9675,88.1294,203.3909Z" fill="#fdfdfd"/><path d="M91.8075,204.6239q.71-.5474,1.4193-1.0939Z" fill="#55a1b3"/><path d="M88.1294,203.3909q-.4614.5759-.9221,1.1505Q87.6691,203.9649,88.1294,203.3909Z" fill="#55a1b3"/><path d="M89.4411,201.7479q-.3208.4441-.641.8867Q89.1211,202.19,89.4411,201.7479Z" fill="#55a1b3"/><path d="M89.2922,206.0989l.9227-.6087Z" fill="#55a1b3"/><line x1="165.234" y1="315.2696" x2="165.234" y2="258.2696" fill="none" stroke="#12141f" stroke-miterlimit="10" stroke-width="17"/><line x1="189.234" y1="308.2696" x2="189.234" y2="251.2696" fill="none" stroke="#12141f" stroke-miterlimit="10" stroke-width="17"/><path d="M238.7791,311.42a12.8353,12.8353,0,0,1-4.983-8.6437,14.2856,14.2856,0,0,1,.3742-5.6261,15.3846,15.3846,0,0,1,2.68-5.3714,16.743,16.743,0,0,1,11.2143-6.2941,18.22,18.22,0,0,1,7.0881.515,19.3513,19.3513,0,0,1,6.6879,3.3521,20.19,20.19,0,0,1,5.1378,5.9337,21.2262,21.2262,0,0,1,2.6058,7.7862,22.1,22.1,0,0,1-.5709,8.557,23.1083,23.1083,0,0,1-3.9615,8.0362,24.041,24.041,0,0,1-6.9782,6.1711,25.1008,25.1008,0,0,1-9.1527,3.18,26.0081,26.0081,0,0,1-10.03-.5409,27.0161,27.0161,0,0,1-9.4354-4.4838" fill="none" stroke="#12141f" stroke-miterlimit="10" stroke-width="17"/><path d="M247.9035,303.29c-.1835.16-.1858.13-.1319.1172a.2972.2972,0,0,1,.1079-.0187.4294.4294,0,0,1-.1339-.0288l-.0175-.0081.0176.01c.0048.0031.0035.0032.0035.0032l.0413.0279.099.0811c.0395.0314.1189.1191.05.0521-.1945-.2114-.1742-.2371-.1609-.1886a.3941.3941,0,0,1,.0255.1235,1.449,1.449,0,0,1,1.316-1.3885,2.444,2.444,0,0,1,1.2865.2128,2.9723,2.9723,0,0,1,1.19,1.0473,4.4094,4.4094,0,0,1,.374,3.9841,6.3728,6.3728,0,0,1-3.8311,3.7282c-1.9392.742-6.0373,2.87-9.5463.2385" fill="none" stroke="#12141f" stroke-miterlimit="10" stroke-width="17"/><path d="M100.734,354.27s-14,59,44.5,18.5l109.0674-45.1407S278.234,311.77,267.234,294.77s-29-9-29-9L122.4914,334.4234Z" fill="#31dd7f"/><line x1="118.234" y1="333.7696" x2="251.234" y2="284.7696" fill="none" stroke="#12141f" stroke-miterlimit="10" stroke-width="17"/><path d="M104.9372,368.34a16.695,16.695,0,0,1-6.4815-11.2429,18.5814,18.5814,0,0,1,.4867-7.3179,20.0109,20.0109,0,0,1,3.4858-6.9866,21.7777,21.7777,0,0,1,14.5865-8.1868,23.6986,23.6986,0,0,1,9.22.67,25.17,25.17,0,0,1,8.699,4.36,26.2617,26.2617,0,0,1,6.6828,7.718,27.609,27.609,0,0,1,3.3893,10.1276,28.7461,28.7461,0,0,1-.7426,11.13,30.0572,30.0572,0,0,1-5.1528,10.4527,31.27,31.27,0,0,1-9.0766,8.0269,32.6488,32.6488,0,0,1-11.905,4.1359,33.8289,33.8289,0,0,1-13.0456-.7036A35.14,35.14,0,0,1,92.81,384.6912" fill="none" stroke="#12141f" stroke-miterlimit="10" stroke-width="17"/><path d="M116.8054,357.7646c-.2387.2076-.2417.1691-.1716.1525a.3866.3866,0,0,1,.14-.0243.5586.5586,0,0,1-.1742-.0375l-.0227-.0105.0229.013c.0063.0041.0045.0041.0045.0041l.0538.0364.1288.1055c.0514.0408.1546.1549.0655.0677-.2529-.2749-.2266-.3084-.2093-.2453a.5126.5126,0,0,1,.0332.1606,1.8847,1.8847,0,0,1,1.7117-1.8061,3.1789,3.1789,0,0,1,1.6733.2768A3.8661,3.8661,0,0,1,121.61,357.82a5.7353,5.7353,0,0,1,.4864,5.1822,8.2891,8.2891,0,0,1-4.9832,4.8493c-2.5224.9651-7.8528,3.7333-12.4169.31" fill="none" stroke="#12141f" stroke-miterlimit="10" stroke-width="17"/><path d="M235.234,291.77c2.5037-3.3012,7.2257-4.7274,11.83-5.2847a18.22,18.22,0,0,1,7.0881.515,19.3513,19.3513,0,0,1,6.6879,3.3521,20.19,20.19,0,0,1,5.1378,5.9337,21.2262,21.2262,0,0,1,2.6058,7.7862,22.1,22.1,0,0,1-.5709,8.557,23.1083,23.1083,0,0,1-3.9615,8.0362,24.041,24.041,0,0,1-6.9782,6.1711c-2.7617,1.62-9.8393,2.9334-13.8393,2.9334" fill="none" stroke="#12141f" stroke-miterlimit="10" stroke-width="17"/><line x1="130.234" y1="386.7696" x2="249.234" y2="328.7696" fill="none" stroke="#12141f" stroke-miterlimit="10" stroke-width="17"/></g></g></svg>